<svg width="85" height="98" viewBox="0 0 85 98" fill="none" xmlns="http://www.w3.org/2000/svg">
<path d="M5.14999 5.29024L0 19.4503H58.37L38.91 71.3402H52.73C54.3833 71.3463 55.9979 70.84 57.3517 69.8909C58.7055 68.9418 59.732 67.5966 60.29 66.0403L80.39 10.7903C80.8421 9.57542 80.9922 8.2689 80.8275 6.98318C80.6627 5.69746 80.188 4.47104 79.4442 3.40945C78.7004 2.34786 77.7098 1.4829 76.5576 0.889022C75.4054 0.295145 74.1262 -0.00986167 72.83 0.000243134H12.71C11.0579 -0.00656456 9.44414 0.498309 8.09048 1.44551C6.73683 2.39271 5.70964 3.73577 5.14999 5.29024Z" fill="#13A34A"/>
<path d="M79.21 92.0003L84.36 77.8403H25.94L45.4 25.9603H31.58C29.9278 25.9535 28.3141 26.4584 26.9605 27.4056C25.6068 28.3528 24.5796 29.6958 24.02 31.2503L3.91996 86.5103C3.46786 87.7251 3.31774 89.0316 3.48249 90.3173C3.64724 91.603 4.12196 92.8295 4.86576 93.8911C5.60956 94.9527 6.60017 95.8176 7.75236 96.4115C8.90454 97.0054 10.1838 97.3104 11.48 97.3003H71.6C73.2601 97.3094 74.8825 96.805 76.2449 95.8562C77.6072 94.9074 78.6429 93.5606 79.21 92.0003Z" fill="#13A34A"/>
</svg>
